<?xml version="1.0" standalone="no"?>
<!DOCTYPE svg PUBLIC "-//W3C//DTD SVG 20010904//EN"
 "http://www.w3.org/TR/2001/REC-SVG-20010904/DTD/svg10.dtd">
<svg version="1.0" xmlns="http://www.w3.org/2000/svg"
 width="1024.000000pt" height="1024.000000pt" viewBox="0 0 1024.000000 1024.000000"
 preserveAspectRatio="xMidYMid meet">

<g transform="translate(0.000000,1024.000000) scale(0.100000,-0.100000)"
fill="#000000" stroke="none">
<path d="M7913 8459 c-66 -33 -100 -85 -158 -244 -207 -574 -723 -1064 -1440
-1370 -239 -102 -650 -224 -915 -271 -52 -9 -101 -20 -108 -24 -9 -4 5 -18 40
-42 87 -58 206 -168 263 -244 107 -142 190 -340 215 -513 19 -130 8 -343 -25
-461 -99 -360 -366 -646 -716 -768 -402 -141 -857 -36 -1160 267 -73 72 -196
238 -211 283 -3 8 -37 -20 -85 -69 -297 -303 -729 -383 -1114 -206 l-75 34
-28 87 c-120 372 -404 739 -740 957 -418 271 -862 298 -1180 71 -425 -304
-464 -1018 -88 -1623 83 -134 169 -241 287 -358 129 -128 258 -223 405 -299
219 -113 373 -150 600 -145 l145 4 175 -116 c839 -557 1828 -912 2757 -990
206 -17 648 -7 823 20 431 64 766 178 1092 371 l100 60 177 -89 c203 -103 336
-163 510 -232 68 -27 125 -49 125 -49 1 0 2 39 2 88 1 72 7 102 33 172 18 47
35 94 37 105 4 18 -96 66 -913 439 -520 238 -925 428 -935 440 -21 26 -22 36
-4 36 31 0 564 -178 746 -250 122 -48 1046 -471 1126 -516 l61 -34 49 53 c27
29 64 64 82 77 l33 25 -115 68 c-63 37 -181 102 -261 144 -133 68 -145 77
-133 93 180 244 274 397 383 623 421 878 578 2078 470 3577 -25 338 -54 601
-75 670 -43 143 -147 204 -257 149z m-6968 -2734 c178 -47 299 -226 299 -445
0 -139 -40 -245 -125 -335 -72 -76 -136 -108 -230 -113 -93 -5 -153 12 -223
66 -213 161 -238 521 -50 722 65 70 157 114 249 119 12 1 48 -6 80 -14z"/>
<path d="M2116 7890 c-9 -167 -38 -1596 -34 -1653 l3 -49 47 64 c26 34 76 92
112 128 62 60 66 67 66 110 0 25 3 69 7 98 5 49 9 55 47 77 52 30 271 124 305
131 21 4 44 -9 120 -70 l93 -74 77 -7 c153 -13 266 -43 386 -103 100 -50 149
-85 240 -173 77 -74 83 -78 150 -91 l69 -14 98 99 c54 55 98 101 98 102 0 1
-30 5 -67 9 -238 24 -524 121 -758 256 -279 161 -534 399 -740 690 -33 46
-117 197 -186 334 l-127 250 -6 -114z"/>
<path d="M2520 6625 c0 -30 2 -55 5 -55 2 0 23 7 45 16 l41 17 -37 38 c-21 22
-42 39 -46 39 -4 0 -8 -25 -8 -55z"/>
<path d="M2975 6052 l-60 -16 57 -8 c115 -15 190 -66 237 -160 90 -180 -26
-395 -224 -415 -187 -19 -350 151 -316 332 5 25 7 45 5 45 -2 0 -15 -22 -29
-50 -142 -281 1 -627 303 -731 83 -29 192 -35 276 -15 143 34 287 139 350 255
l28 53 -12 111 c-7 68 -9 150 -5 213 7 100 6 104 -21 151 -63 108 -193 205
-319 238 -75 19 -192 18 -270 -3z"/>
<path d="M4833 6018 c-56 -10 -72 -28 -25 -28 49 0 144 -54 194 -109 66 -73
91 -144 86 -242 -18 -324 -433 -439 -615 -171 -36 53 -67 158 -61 208 6 50 -7
29 -38 -61 -23 -67 -27 -97 -28 -185 0 -89 4 -117 28 -185 64 -186 200 -322
380 -382 110 -36 268 -38 366 -4 98 34 168 78 241 150 237 238 237 603 -1 841
-142 142 -334 203 -527 168z"/>
<path d="M8868 2670 c-90 -17 -162 -54 -220 -113 -112 -114 -164 -268 -139
-414 26 -156 81 -264 184 -360 80 -75 123 -100 278 -161 206 -83 483 -205 729
-321 129 -61 235 -110 236 -108 4 5 -206 727 -241 827 -45 131 -130 308 -184
389 -90 132 -216 224 -352 256 -66 15 -225 18 -291 5z m263 -80 c102 -52 147
-182 100 -285 -23 -51 -89 -111 -138 -124 -114 -32 -232 26 -273 134 -16 42
-14 125 3 167 48 115 193 166 308 108z"/>
</g>
</svg>
